<?xml version="1.0" encoding="UTF-8"?>
<svg version="1.1" xmlns="http://www.w3.org/2000/svg" width="1024" height="1024">
<path d="M0 0 C337.92 0 675.84 0 1024 0 C1024 337.92 1024 675.84 1024 1024 C686.08 1024 348.16 1024 0 1024 C0 686.08 0 348.16 0 0 Z " fill="#95D1DA" transform="translate(0,0)"/>
<path d="M0 0 C2.45426701 0.59796672 4.9083614 1.1531637 7.38037109 1.67138672 C49.3676201 10.54761162 98.93337774 29.74001836 129.89990234 60.70654297 C132.7128399 60.90566892 135.42779861 60.97841577 138.24208069 60.96482849 C139.1154032 60.9685042 139.98872572 60.9721799 140.88851255 60.97596699 C143.83255309 60.98599493 146.77640651 60.98178663 149.72045898 60.9777832 C151.82435305 60.98216766 153.92824537 60.98746879 156.03213501 60.99362183 C160.57256699 61.00514749 165.11295214 61.01058314 169.65339851 61.01150322 C176.83492931 61.01343972 184.01636306 61.03147131 191.19786072 61.05226135 C209.04276875 61.10151528 226.88770332 61.13231352 244.73266602 61.15356445 C258.58594374 61.17009061 272.43913881 61.19292841 286.2923612 61.2365852 C293.428464 61.2583568 300.5644098 61.2664197 307.70054352 61.26419246 C312.14781179 61.26586166 316.59497805 61.27992616 321.04220963 61.29740524 C323.10088419 61.30299539 325.15957999 61.30349863 327.218256 61.29846764 C330.03534907 61.29230655 332.85180107 61.30459382 335.6688385 61.3212738 C336.47781257 61.31506199 337.28678664 61.30885017 338.12027508 61.30245012 C345.41472811 61.38079661 352.69578754 62.90063047 358.21240234 67.95654297 C358.82728516 68.49794922 359.44216797 69.03935547 360.07568359 69.59716797 C366.73697922 77.29973679 366.4682795 84.41858124 366.40161133 94.16943359 C366.40539775 95.74530011 366.41090045 97.32116329 366.41798401 98.89701843 C366.43191388 103.16360909 366.42078634 107.42979536 366.40427279 111.69636345 C366.39039247 116.16806202 366.39688577 120.63973783 366.40040588 125.1114502 C366.40310565 132.6199391 366.38965252 140.12826794 366.36645508 147.63671875 C366.3398468 156.3090302 366.33809911 164.98107406 366.34984344 173.65341234 C366.36063465 182.00686588 366.35442362 190.36022293 366.34028816 198.71366882 C366.33454 202.26375111 366.33460182 205.81376253 366.33935356 209.36384583 C366.34413717 213.54674979 366.3339646 217.72936196 366.31239891 221.91221046 C366.30684967 223.44442066 366.30634859 224.976659 366.31135178 226.50887108 C366.31733959 228.60612858 366.30473431 230.70250433 366.2875824 232.79968262 C366.2851525 233.9714077 366.28272261 235.14313278 366.28021908 236.35036469 C365.64770464 241.93211015 363.43864136 246.60198156 359.77490234 250.89404297 C358.99759766 251.8434375 358.99759766 251.8434375 358.20458984 252.81201172 C351.57794903 258.2593351 344.63254523 259.29192429 336.29101562 259.20990753 C335.25341945 259.21572129 334.21582327 259.22153506 333.14678478 259.227525 C329.67102415 259.24211915 326.1959703 259.22824176 322.72021484 259.21447754 C320.20272969 259.21908665 317.68524722 259.22543963 315.16777039 259.23338652 C309.69483448 259.24661111 304.2221145 259.24740632 298.74917603 259.23719788 C290.61073882 259.22205888 282.47243465 259.22980754 274.33399832 259.2420311 C259.79824579 259.2630906 245.26256359 259.2612699 230.72680438 259.24971545 C218.00633861 259.23965361 205.28589862 259.23702625 192.56542969 259.24180603 C191.72168293 259.24211157 190.87793617 259.24241711 190.00862134 259.24273191 C186.58358646 259.24397726 183.1585516 259.24525086 179.73351675 259.24657097 C147.60342793 259.25880724 115.47338392 259.24771269 83.34330201 259.22618338 C54.79704062 259.20720092 26.25085061 259.20889943 -2.29541016 259.22802734 C-34.3666951 259.24944542 -66.43794046 259.25793945 -98.50923157 259.24557829 C-101.92802937 259.24429542 -105.34682718 259.24304406 -108.765625 259.24180603 C-110.02831972 259.24133157 -110.02831972 259.24133157 -111.31652343 259.24084752 C-124.02906033 259.23629744 -136.74156862 259.24161908 -149.45410156 259.25172424 C-163.90869043 259.26315687 -178.36319796 259.26031138 -192.81777668 259.23860127 C-200.90773142 259.22685138 -208.99751003 259.22609611 -217.08746022 259.24118597 C-223.12529937 259.25120617 -229.16290976 259.24034719 -235.20073509 259.22128767 C-237.64542552 259.21681183 -240.09013948 259.21910974 -242.53481483 259.22879082 C-245.85395096 259.24092865 -249.17212522 259.22850473 -252.49121094 259.20990753 C-253.44364591 259.2192722 -254.39608088 259.22863686 -255.37737751 259.2382853 C-262.66710228 259.15647481 -268.44453444 257.30880831 -274.40478516 253.06591797 C-274.92298828 252.53482422 -275.44119141 252.00373047 -275.97509766 251.45654297 C-276.50876953 250.93576172 -277.04244141 250.41498047 -277.59228516 249.87841797 C-283.08053423 241.97306438 -282.5403674 233.35768613 -282.52001953 224.14599609 C-282.52736756 222.5716034 -282.53595592 220.99721608 -282.54568481 219.4228363 C-282.56782861 215.16459616 -282.57083522 210.90654993 -282.5689373 206.64826012 C-282.56881731 203.08712004 -282.57739291 199.52602062 -282.58571482 195.96489191 C-282.60492194 187.56185326 -282.607842 179.15891395 -282.60107422 170.75585938 C-282.59443008 162.09879354 -282.61731883 153.4421534 -282.65438795 144.78517389 C-282.68510862 137.33948903 -282.69644258 129.89394098 -282.69255114 122.44819403 C-282.69048667 118.00680035 -282.69591654 113.56573832 -282.72044373 109.12440491 C-282.74274864 104.9479371 -282.74080243 100.77216108 -282.7205162 96.59568977 C-282.71711312 95.06710838 -282.72216507 93.53848005 -282.73649979 92.00996208 C-282.82299512 82.09979446 -281.84196323 75.86152562 -275.03759766 68.46435547 C-274.39822266 67.92552734 -273.75884766 67.38669922 -273.10009766 66.83154297 C-272.46072266 66.27724609 -271.82134766 65.72294922 -271.16259766 65.15185547 C-266.59975581 61.95440948 -262.6315463 61.45276305 -257.12089539 61.42807007 C-256.43058647 61.42227767 -255.74027754 61.41648526 -255.02905017 61.41051733 C-252.72285093 61.39355245 -250.41685224 61.39064391 -248.1105957 61.38769531 C-246.45470186 61.3783947 -244.79881269 61.36822583 -243.14292908 61.35725403 C-238.65164279 61.32995493 -234.16038787 61.31480487 -229.66904044 61.301826 C-224.97380714 61.2861951 -220.27863788 61.25940473 -215.58345032 61.23379517 C-206.69423313 61.1870067 -197.80500389 61.1502629 -188.91572648 61.11712229 C-178.79484453 61.07890141 -168.6740269 61.02949115 -158.55319917 60.97913814 C-137.73554616 60.87581725 -116.91785243 60.78655733 -96.10009766 60.70654297 C-96.71208008 60.30822266 -97.3240625 59.90990234 -97.95458984 59.49951172 C-98.76057617 58.96970703 -99.5665625 58.43990234 -100.39697266 57.89404297 C-101.19458008 57.37197266 -101.9921875 56.84990234 -102.81396484 56.31201172 C-110.74623574 50.74146351 -113.83081745 42.96636009 -116.10009766 33.70654297 C-117.28810336 24.71027397 -116.56895022 17.13140849 -111.10009766 9.70654297 C-86.222918 -18.42507926 -31.33868755 -7.79490198 0 0 Z " fill="#3BB371" transform="translate(470.10009765625,477.29345703125)"/>
<path d="M0 0 C1.02977966 0.00215515 2.05955933 0.0043103 3.12054443 0.00653076 C18.21533293 0.0573431 32.88679694 0.46325008 47.75 3.3125 C48.83764648 3.51117676 49.92529297 3.70985352 51.04589844 3.91455078 C72.89902327 7.97437845 72.89902327 7.97437845 81.5234375 11.62109375 C99.29670339 19.08040436 114.71928703 16.7677672 133.28808594 13.97167969 C138.43299875 13.198247 143.59009345 12.59172963 148.7578125 11.98950195 C151.65592866 11.65061666 154.55129056 11.29793839 157.4453125 10.92578125 C158.18797363 10.83079346 158.93063477 10.73580566 159.69580078 10.63793945 C161.76103057 10.34569793 161.76103057 10.34569793 163.78466797 9.77807617 C166.766404 9.07171957 169.7010356 9.25386607 172.75 9.3125 C173.82853051 20.31351116 168.51212654 30.87594213 161.75 39.3125 C149.33427633 54.23414955 129.44645588 61.26764861 110.75 64.3125 C109.083837 64.35347122 107.4157683 64.36721502 105.75 64.3125 C105.75 67.2825 105.75 70.2525 105.75 73.3125 C107.1525 73.250625 108.555 73.18875 110 73.125 C127.9003579 73.17542354 143.838602 82.36139169 156.66796875 94.1796875 C162.68763838 100.34617834 166.68440143 107.78720312 170.75 115.3125 C171.16056641 116.06716553 171.57113281 116.82183105 171.99414062 117.59936523 C172.97817828 119.47077881 173.87252958 121.38881486 174.75 123.3125 C174.42 123.9725 174.09 124.6325 173.75 125.3125 C173.10611328 124.72855469 173.10611328 124.72855469 172.44921875 124.1328125 C154.20143464 108.75506822 130.81991754 102.13678557 107.75 98.3125 C107.75444122 99.06464783 107.75888245 99.81679565 107.76345825 100.59173584 C107.80421833 107.82334865 107.83432071 115.05490268 107.85362434 122.28660202 C107.86388328 126.00085254 107.87769587 129.7150051 107.90087891 133.42919922 C108.07891572 162.76849043 107.53924137 192.64273848 101.72058105 221.49911499 C101.4485146 222.85088868 101.4485146 222.85088868 101.17095184 224.22997093 C101.03203773 224.91720552 100.89312363 225.60444012 100.75 226.3125 C86.95464029 226.4997984 73.15947912 226.64012434 59.36310673 226.72699738 C52.95638408 226.76869855 46.55051724 226.82523702 40.14428711 226.91601562 C33.95856285 227.00311824 27.77366024 227.05081226 21.58736992 227.07151794 C19.23062649 227.08626797 16.87392663 227.11507246 14.51753426 227.15834045 C11.2087094 227.2166652 7.90325263 227.22440276 4.59399414 227.22070312 C3.6258226 227.24946533 2.65765106 227.27822754 1.66014099 227.30786133 C-6.31673873 227.2117448 -9.83018267 223.82838537 -15.25 218.3125 C-17.71761858 216.38351043 -20.27444677 214.61944778 -22.875 212.875 C-23.56537354 212.40892334 -24.25574707 211.94284668 -24.96704102 211.46264648 C-27.05312857 210.06628487 -29.14878081 208.68596504 -31.25 207.3125 C-32.13486084 206.73048828 -32.13486084 206.73048828 -33.03759766 206.13671875 C-52.29899152 193.61653623 -73.67611735 184.91021279 -95.27783203 177.35400391 C-97.83739366 176.45708507 -100.38645306 175.53685654 -102.93359375 174.60546875 C-121.15903981 168.08247927 -140.34060241 164.29731491 -159.25 160.3125 C-158.57655013 152.76825799 -157.12714431 145.51714501 -155.5 138.125 C-155.0968457 136.27865967 -155.0968457 136.27865967 -154.68554688 134.39501953 C-154.1369415 131.88900835 -153.58617716 129.38346879 -153.03320312 126.87841797 C-152.32685659 123.66242746 -151.63705888 120.44347025 -150.953125 117.22265625 C-145.00985792 89.59999896 -135.23937002 63.91860195 -115.25 43.3125 C-114.38568359 42.33796875 -114.38568359 42.33796875 -113.50390625 41.34375 C-93.27953569 19.36269692 -62.75208906 8.15505561 -34.25 2.3125 C-33.4156543 2.12341064 -32.58130859 1.93432129 -31.72167969 1.73950195 C-21.26349736 -0.36658159 -10.62000025 -0.03964348 0 0 Z " fill="#FDFBE5" transform="translate(606.25,312.6875)"/>
<path d="M0 0 C2.45426701 0.59796672 4.9083614 1.1531637 7.38037109 1.67138672 C43.66902508 9.34291228 107.78859267 28.53957846 129.89990234 61.70654297 C100.8667095 61.84675692 71.83356747 61.95253579 42.80010414 62.017416 C40.11543372 62.02353498 37.43076363 62.02978291 34.74609375 62.03613281 C34.07881915 62.03770668 33.41154454 62.03928054 32.72404949 62.04090209 C21.93160377 62.06698205 11.13935057 62.1142739 0.34701891 62.16945975 C-10.73391087 62.22564709 -21.81476232 62.25846328 -32.89583075 62.27107394 C-39.11704929 62.27889024 -45.33783172 62.29723701 -51.55891037 62.34092331 C-57.41780141 62.38173181 -63.27607783 62.39419502 -69.1350975 62.38518906 C-71.28208255 62.38683598 -73.42908873 62.39872125 -75.57595062 62.42177582 C-96.46339236 62.635026 -96.46339236 62.635026 -104.10009766 55.70654297 C-104.77523092 55.10591223 -105.45036419 54.50528149 -106.14595604 53.88644981 C-113.52426125 46.87038876 -116.32616009 36.35450745 -116.72509766 26.45654297 C-116.36218058 17.92799171 -113.61550232 11.7572348 -107.41259766 5.89404297 C-79.20470304 -16.55606042 -31.84285254 -7.92030342 0 0 Z " fill="#EB946C" transform="translate(470.10009765625,477.29345703125)"/>
<path d="M0 0 C7.4001826 3.83366861 11.14156748 8.26210091 14.09741211 15.93725586 C15.66723274 21.32579522 15.43441038 26.77563473 15.43310547 32.34301758 C15.43745296 34.41507827 15.47375149 36.4849594 15.51171875 38.55664062 C15.59148264 48.06643491 14.22160203 55.86782617 9.375 64.125 C2.35641353 70.57451189 -3.89004737 72.03247022 -13.26318359 71.9050293 C-19.97113593 71.56173092 -25.06194478 70.10639783 -29.9375 65.25 C-36.86448307 56.29491055 -37.17031046 48.13297932 -37.23266602 37.17749023 C-37.24414948 35.77634554 -37.26454384 34.37524334 -37.29418945 32.97436523 C-37.50669253 22.90836757 -36.80916723 14.22249466 -30.6875 5.875 C-22.55727369 -1.88567057 -10.48157107 -4.49210189 0 0 Z " fill="#DBFBC7" transform="translate(338.9375,604.75)"/>
<path d="M0 0 C34 0 34 0 42 4 C48.01481602 10.27632976 49.47237477 14.53237113 49.31640625 23.08984375 C48.63913172 29.31909711 44.36061371 32.8816426 40 37 C40.78375 37.268125 41.5675 37.53625 42.375 37.8125 C45 39 45 39 47 42 C47.22705078 44.91088867 47.22705078 44.91088867 47.1953125 48.41796875 C47.18886719 49.67158203 47.18242188 50.92519531 47.17578125 52.21679688 C47.15902344 53.52712891 47.14226563 54.83746094 47.125 56.1875 C47.11496639 57.52277987 47.1058412 58.85806689 47.09765625 60.19335938 C47.07405367 63.46231645 47.03818219 66.73118071 47 70 C42.71 70 38.42 70 34 70 C33.93941406 68.27910156 33.87882813 66.55820312 33.81640625 64.78515625 C33.73202109 62.5442614 33.64737209 60.30337647 33.5625 58.0625 C33.52318359 56.92619141 33.48386719 55.78988281 33.44335938 54.61914062 C33.40146484 53.53955078 33.35957031 52.45996094 33.31640625 51.34765625 C33.26141968 49.84730835 33.26141968 49.84730835 33.20532227 48.31665039 C33.25328159 46.03930812 33.25328159 46.03930812 32 45 C30.58672053 44.84379445 29.1664541 44.74943827 27.74609375 44.68359375 C26.9770874 44.64548584 26.20808105 44.60737793 25.41577148 44.56811523 C24.43294189 44.52501221 23.4501123 44.48190918 22.4375 44.4375 C19.323125 44.293125 16.20875 44.14875 13 44 C13 52.58 13 61.16 13 70 C8.71 70 4.42 70 0 70 C0 46.9 0 23.8 0 0 Z " fill="#DEFDC9" transform="translate(673,605)"/>
<path d="M0 0 C1.07853051 11.00101116 -4.23787346 21.56344213 -11 30 C-23.41572367 44.92164955 -43.30354412 51.95514861 -62 55 C-63.66657619 55.01736652 -65.33345232 55.01991472 -67 55 C-67.694105 49.7347451 -68.38785916 44.46944413 -69.08129883 39.20410156 C-69.31688122 37.41567763 -69.55255677 35.62726596 -69.78833008 33.83886719 C-70.12866767 31.25719429 -70.46866186 28.67547635 -70.80859375 26.09375 C-70.91280136 25.30383667 -71.01700897 24.51392334 -71.12437439 23.70007324 C-71.76883914 18.80233582 -72.39208145 13.90241146 -73 9 C-65.32973669 7.50666133 -57.67370487 6.40134408 -49.91015625 5.52734375 C-48.80320908 5.39936905 -47.6962619 5.27139435 -46.55577087 5.13954163 C-43.05839367 4.73547252 -39.56051146 4.33603819 -36.0625 3.9375 C-32.53953756 3.53504755 -29.01671397 3.13151779 -25.49424744 2.7247467 C-23.31206145 2.47282503 -21.12958454 2.22340766 -18.9467926 1.97679138 C-17.46891518 1.80640099 -17.46891518 1.80640099 -15.96118164 1.63256836 C-15.09723282 1.53423203 -14.233284 1.43589569 -13.34315491 1.33457947 C-11.02827952 1.04806345 -11.02827952 1.04806345 -8.92430115 0.46437073 C-5.96005539 -0.25095856 -3.03323613 -0.05833146 0 0 Z " fill="#EB946D" transform="translate(779,322)"/>
<path d="M0 0 C8.58 0 17.16 0 26 0 C27.51170792 10.37805062 28.90188748 20.76682137 30.23217773 31.16943359 C30.56382126 33.76032203 30.89804093 36.35086985 31.23242188 38.94140625 C32.26188851 46.95265405 33.26339957 54.9553301 34 63 C34.66 63 35.32 63 36 63 C36 42.21 36 21.42 36 0 C40.29 0 44.58 0 49 0 C49 23.1 49 46.2 49 70 C40.42 70 31.84 70 23 70 C20.95065001 57.44547765 19.15162062 44.89886298 17.63745117 32.26928711 C17.30639489 29.51164551 16.96894457 26.75483473 16.63085938 23.99804688 C16.41629741 22.22921142 16.20209068 20.46033283 15.98828125 18.69140625 C15.88832352 17.87483047 15.78836578 17.0582547 15.68537903 16.2169342 C15.27550749 12.7754239 15 9.47150963 15 6 C14.34 6 13.68 6 13 6 C13 27.12 13 48.24 13 70 C8.71 70 4.42 70 0 70 C0 46.9 0 23.8 0 0 Z " fill="#DFFDC9" transform="translate(242,605)"/>
<path d="M0 0 C8.58 0 17.16 0 26 0 C26.68835938 3.06087891 26.68835938 3.06087891 27.390625 6.18359375 C33.3240002 33.02029442 33.3240002 33.02029442 40.16796875 59.6328125 C41.01938044 63.07843164 41.55671453 66.48058199 42 70 C37.38 70 32.76 70 28 70 C25 58.375 25 58.375 25 55 C17.08 55 9.16 55 1 55 C0.01 59.95 -0.98 64.9 -2 70 C-6.62 70 -11.24 70 -16 70 C-15.2718571 62.85016311 -13.76800769 55.9429279 -12.1875 48.9375 C-11.91760254 47.73101807 -11.64770508 46.52453613 -11.36962891 45.28149414 C-9.72345417 37.99346532 -7.94194917 30.77673131 -5.94140625 23.578125 C-4.56791026 18.3577004 -3.43059445 13.08932529 -2.30615234 7.81030273 C-1.09952475 2.19904951 -1.09952475 2.19904951 0 0 Z " fill="#DCFCC7" transform="translate(622,605)"/>
<path d="M0 0 C4.10942692 3.21739919 7.90233526 6.75560178 9 12 C9.13969481 15.3526754 9.08958711 18.64048337 9 22 C4.71 22 0.42 22 -4 22 C-4.3403125 20.14375 -4.3403125 20.14375 -4.6875 18.25 C-5.45045942 15.34250601 -6.05263453 13.93208448 -7.9375 11.5 C-12.47927229 9.27545847 -17.03140989 9.17807228 -22 10 C-24.34267952 11.19244734 -24.34267952 11.19244734 -26 13 C-26.66666667 16.5 -26.66666667 16.5 -26 20 C-22.12955467 24.31703518 -16.16517752 24.98625814 -10.6875 25.8125 C-5.01739615 26.81401291 -0.67127172 28.64139185 4 32 C4.62390625 32.44730469 5.2478125 32.89460937 5.890625 33.35546875 C9.00286277 36.18411476 9.90065774 38.30922477 10.50390625 42.50390625 C10.72490337 49.6827482 10.59631964 56.20202816 6 62 C0.58567977 67.41432023 -5.51102986 69.38063303 -12.97851562 69.45898438 C-14.19571289 69.44834961 -14.19571289 69.44834961 -15.4375 69.4375 C-16.24509766 69.45748047 -17.05269531 69.47746094 -17.88476562 69.49804688 C-25.19212989 69.49215859 -30.36262924 67.34432957 -35.8125 62.5 C-41.93000742 55.50856295 -43.27955828 50.22542327 -43 41 C-38.71 41 -34.42 41 -30 41 C-29.6596875 43.0728125 -29.6596875 43.0728125 -29.3125 45.1875 C-28.31506827 49.74411256 -26.70069562 52.03944351 -23 55 C-18.30265418 57.34867291 -11.73243408 56.5543789 -6.875 55 C-4.46745332 52.43195021 -4.13311797 50.4532634 -3.65234375 47.03515625 C-4.19781467 43.84200623 -5.39924976 42.92091887 -8 41 C-11.0052755 39.92634079 -14.07527495 39.25357279 -17.1875 38.5625 C-33.21160724 34.64149876 -33.21160724 34.64149876 -37.37890625 29.19921875 C-38.5 27.3125 -38.5 27.3125 -40 24 C-40.33 23.34 -40.66 22.68 -41 22 C-41.7665642 15.23915509 -41.21229923 9.4984074 -37 4 C-27.00945653 -5.7521574 -11.9789942 -7.07567533 0 0 Z " fill="#DCFCC8" transform="translate(528,607)"/>
<path d="M0 0 C4.29 0 8.58 0 13 0 C13 9.57 13 19.14 13 29 C20.59 29 28.18 29 36 29 C36 19.43 36 9.86 36 0 C40.29 0 44.58 0 49 0 C49 23.1 49 46.2 49 70 C44.71 70 40.42 70 36 70 C36 60.43 36 50.86 36 41 C28.41 41 20.82 41 13 41 C13 50.57 13 60.14 13 70 C8.71 70 4.42 70 0 70 C0 46.9 0 23.8 0 0 Z " fill="#E0FECA" transform="translate(549,605)"/>
<path d="M0 0 C14.52 0 29.04 0 44 0 C44 3.96 44 7.92 44 12 C33.77 12 23.54 12 13 12 C13 17.61 13 23.22 13 29 C22.9 29 32.8 29 43 29 C43 32.96 43 36.92 43 41 C33.43 41 23.86 41 14 41 C14 46.28 14 51.56 14 57 C24.56 57 35.12 57 46 57 C46 61.29 46 65.58 46 70 C30.82 70 15.64 70 0 70 C0 46.9 0 23.8 0 0 Z " fill="#DDFCC8" transform="translate(428,605)"/>
<path d="M0 0 C14.52 0 29.04 0 44 0 C44 3.96 44 7.92 44 12 C33.77 12 23.54 12 13 12 C13 17.61 13 23.22 13 29 C22.9 29 32.8 29 43 29 C43 32.96 43 36.92 43 41 C33.1 41 23.2 41 13 41 C13 46.28 13 51.56 13 57 C23.89 57 34.78 57 46 57 C46 61.29 46 65.58 46 70 C30.82 70 15.64 70 0 70 C0 46.9 0 23.8 0 0 Z " fill="#DEFDC9" transform="translate(735,605)"/>
<path d="M0 0 C1.52089169 0.12428792 3.04170545 0.24952904 4.5625 0.375 C6.24859375 0.51035156 6.24859375 0.51035156 7.96875 0.6484375 C10.78664343 0.8837316 13.59541018 1.16867412 16.40625 1.4765625 C36.86868398 3.60681 57.44659573 3.65541216 78 4 C78.58007812 5.22867798 78.58007812 5.22867798 79.171875 6.48217773 C79.95304687 8.09781616 79.95304687 8.09781616 80.75 9.74609375 C81.26046875 10.8127124 81.7709375 11.87933105 82.296875 12.97827148 C85.86353308 19.3063287 91.41484925 23.20131093 98 26 C98 26.33 98 26.66 98 27 C65 27 32 27 -2 27 C-2 20.16612883 -1.94726777 13.97537665 -1 7.3125 C-0.90460938 6.59900391 -0.80921875 5.88550781 -0.7109375 5.15039062 C-0.48037767 3.43271988 -0.24117417 1.71621259 0 0 Z " fill="#FDFBE5" transform="translate(278,512)"/>
<path d="M0 0 C19.37785775 -0.45850473 35.87073187 7.92700081 49.91796875 20.8671875 C55.93763838 27.03367834 59.93440143 34.47470312 64 42 C64.41056641 42.75466553 64.82113281 43.50933105 65.24414062 44.28686523 C66.22817828 46.15827881 67.12252958 48.07631486 68 50 C67.505 50.99 67.505 50.99 67 52 C66.35611328 51.41605469 66.35611328 51.41605469 65.69921875 50.8203125 C47.48272764 35.46893941 24.05402679 28.76180976 1 25 C0.05779874 19.47291389 -0.12116149 14.16241648 -0.0625 8.5625 C-0.05798828 7.73556641 -0.05347656 6.90863281 -0.04882812 6.05664062 C-0.03715811 4.03772854 -0.01922718 2.01885426 0 0 Z " fill="#EA956E" transform="translate(713,386)"/>
<path d="M0 0 C16.5 0 33 0 50 0 C50 3.96 50 7.92 50 12 C44.06 12 38.12 12 32 12 C32 31.14 32 50.28 32 70 C27.71 70 23.42 70 19 70 C19 50.86 19 31.72 19 12 C12.73 12 6.46 12 0 12 C0 8.04 0 4.08 0 0 Z " fill="#DEFDC9" transform="translate(364,605)"/>
<path d="M0 0 C4.19181906 2.30977785 5.56734065 4.53331335 7 9 C7.36614857 13.44455539 7.3294535 17.88970083 7.31567383 22.34716797 C7.31250932 24.49367861 7.33601634 26.63881522 7.36132812 28.78515625 C7.36360106 30.15885244 7.36430464 31.53255231 7.36328125 32.90625 C7.36626221 34.14697266 7.36924316 35.38769531 7.37231445 36.66601562 C6.87559033 41.11405797 5.34183398 43.70639261 2.15234375 46.78125 C-1.95376118 49.10630397 -6.44551364 48.7162842 -11 48 C-15.36212525 44.97321922 -16.6035321 41.99796507 -18 37 C-18.40280744 32.50574312 -18.32450907 28.01060634 -18.3125 23.5 C-18.32861328 22.28957031 -18.34472656 21.07914063 -18.36132812 19.83203125 C-18.36197266 18.66027344 -18.36261719 17.48851562 -18.36328125 16.28125 C-18.36626221 15.21970703 -18.36924316 14.15816406 -18.37231445 13.06445312 C-17.83171698 8.61489284 -15.86228492 5.36528446 -13.5 1.625 C-9.31222187 -1.09705578 -4.83245099 -0.70981105 0 0 Z " fill="#3DB472" transform="translate(333,616)"/>
<path d="M0 0 C3 0.5 3 0.5 4.8125 2.25 C8.4911566 9.22008619 8.04679715 18.36172715 6.1640625 25.8046875 C2.93755923 34.31486055 -2.00094592 40.61880341 -10.125 44.875 C-11.40798254 45.43692646 -12.69915745 45.98075612 -14 46.5 C-14.94875 46.9125 -15.8975 47.325 -16.875 47.75 C-25.89034354 49.91368245 -34.54542751 48.47742197 -42.640625 44.05859375 C-49.12381817 39.8755754 -54.16073173 34.91330092 -56.6875 27.4765625 C-57.23089677 24.79354095 -57.23154342 22.96308684 -56 20.5 C-54 19.5 -54 19.5 -50.6875 19.1875 C-45.7298373 20.95209181 -45.00062289 23.49196273 -42.60546875 27.98046875 C-39.84969548 32.30522242 -35.82538221 34.66104551 -30.9609375 36.10546875 C-24.78594265 37.34784819 -19.49663192 36.37587493 -14 33.5 C-9.61808357 30.01438466 -6.65779823 25.84279538 -5 20.5 C-4.53075182 15.85313957 -4.58961049 11.3823199 -5.5859375 6.8125 C-6 4.5 -6 4.5 -4.9375 2.1875 C-3 0.5 -3 0.5 0 0 Z " fill="#EC966E" transform="translate(649,363.5)"/>
<path d="M0 0 C3.5578125 -0.0928125 3.5578125 -0.0928125 7.1875 -0.1875 C8.29387817 -0.22846802 8.29387817 -0.22846802 9.42260742 -0.27026367 C13.85121619 -0.32588293 16.47361597 0.33748335 20 3 C22.37040308 5.37040308 22.34465793 6.06302753 22.4375 9.3125 C22.47746094 10.07175781 22.51742187 10.83101562 22.55859375 11.61328125 C21.68282012 15.35522314 20.06762666 16.7408951 17 19 C14.02464696 19.58521437 11.20455826 19.47560764 8.1875 19.3125 C4.1346875 19.1578125 4.1346875 19.1578125 0 19 C0 12.73 0 6.46 0 0 Z " fill="#41B574" transform="translate(686,617)"/>
<path d="M0 0 C0.99 0 1.98 0 3 0 C3.98782573 4.14381846 4.96367139 8.29037176 5.9375 12.4375 C6.21529297 13.60216797 6.49308594 14.76683594 6.77929688 15.96679688 C8.26469762 22.32001694 9.45053392 28.49682553 10 35 C4.39 35 -1.22 35 -7 35 C-5.2242619 23.21555626 -2.58639637 11.62843806 0 0 Z " fill="#3EB472" transform="translate(633,612)"/>
<path d="M0 0 C32.01 0 64.02 0 97 0 C97 0.33 97 0.66 97 1 C95.12636327 1.3205724 93.25095905 1.6308098 91.375 1.9375 C90.33085938 2.11152344 89.28671875 2.28554688 88.2109375 2.46484375 C76.44497508 4.1088508 64.54610717 4.23380036 52.6875 4.25 C51.8996109 4.25233643 51.1117218 4.25467285 50.29995728 4.25708008 C33.41750582 4.27574105 16.76686107 2.89073471 0 1 C0 0.67 0 0.34 0 0 Z " fill="#F8F9E5" transform="translate(439,736)"/>
</svg>
